{"accessors":[{"bufferView":0,"componentType":5126,"count":4,"max":[0.375,0.0,0.25],"min":[-0.375,0.0,-0.25],"normalized":false,"type":"VEC3"},{"bufferView":1,"componentType":5126,"count":4,"max":[1.0,0.0,-1.5259021893143654e-05,1.0],"min":[1.0,0.0,-1.5259021893143654e-05,1.0],"normalized":false,"type":"VEC4"},{"bufferView":2,"componentType":5126,"count":4,"max":[0.0,1.0,-1.5259021893143654e-05],"min":[0.0,1.0,-1.5259021893143654e-05],"normalized":false,"type":"VEC3"},{"bufferView":3,"componentType":5126,"count":4,"max":[1.0,1.0],"min":[0.0,0.0],"normalized":false,"type":"VEC2"},{"bufferView":4,"componentType":5121,"count":6,"max":[3],"min":[0],"normalized":false,"type":"SCALAR"},{"bufferView":5,"componentType":5126,"count":24,"max":[0.375,0.053466796875,0.25],"min":[-0.375,-0.053466796875,-0.25],"normalized":false,"type":"VEC3"},{"bufferView":6,"componentType":5126,"count":24,"max":[1.0,0.0,1.0,1.0],"min":[-1.0,-1.5259254723787308e-05,-1.0,1.0],"normalized":false,"type":"VEC4"},{"bufferView":7,"componentType":5126,"count":24,"max":[1.0,1.0,1.0],"min":[-1.0,-1.0,-1.0],"normalized":false,"type":"VEC3"},{"bufferView":8,"componentType":5126,"count":24,"max":[1.0,1.0],"min":[0.0,0.0],"normalized":false,"type":"VEC2"},{"bufferView":9,"componentType":5121,"count":36,"max":[23],"min":[0],"normalized":false,"type":"SCALAR"},{"bufferView":10,"componentType":5126,"count":24,"max":[0.05000000074505806,0.02500000037252903,0.05000000074505806],"min":[-0.05000000074505806,-0.02500000037252903,-0.05000000074505806],"normalized":false,"type":"VEC3"},{"bufferView":11,"componentType":5126,"count":24,"max":[0.004999999888241291,0.23999999463558197,0.2874999940395355],"min":[-0.004999999888241291,-0.23999999463558197,-0.2874999940395355],"normalized":false,"type":"VEC3"},{"bufferView":12,"componentType":5126,"count":4,"max":[0.25,0.0,0.16500000655651093],"min":[-0.25,0.0,-0.16500000655651093],"normalized":false,"type":"VEC3"},{"bufferView":13,"componentType":5126,"count":24,"max":[0.25,0.05000000074505806,0.25],"min":[-0.25,-0.05000000074505806,-0.25],"normalized":false,"type":"VEC3"},{"bufferView":14,"componentType":5126,"count":24,"max":[0.25,0.05000000074505806,0.2874999940395355],"min":[-0.25,-0.05000000074505806,-0.2874999940395355],"normalized":false,"type":"VEC3"},{"bufferView":15,"componentType":5126,"count":24,"max":[0.28999999165534973,0.2224999964237213,0.009999999776482582],"min":[-0.28999999165534973,-0.2224999964237213,-0.009999999776482582],"normalized":false,"type":"VEC3"},{"bufferView":16,"componentType":5126,"count":24,"max":[0.3499999940395355,0.3499999940395355,0.10000000149011612],"min":[-0.3499999940395355,-0.3499999940395355,-0.10000000149011612],"normalized":false,"type":"VEC3"},{"bufferView":17,"componentType":5126,"count":24,"max":[0.32499998807907104,0.012500000186264515,0.15000000596046448],"min":[-0.32499998807907104,-0.012500000186264515,-0.15000000596046448],"normalized":false,"type":"VEC3"},{"bufferView":18,"componentType":5126,"count":24,"max":[0.03750000149011612,0.0949999988079071,0.03750000149011612],"min":[-0.03750000149011612,-0.0949999988079071,-0.03750000149011612],"normalized":false,"type":"VEC3"},{"bufferView":19,"componentType":5126,"count":24,"max":[0.15000000596046448,0.019999999552965164,0.10000000149011612],"min":[-0.15000000596046448,-0.019999999552965164,-0.10000000149011612],"normalized":false,"type":"VEC3"}],"asset":{"generator":"Godot Engine v4.7.stable.mono.official@5b4e0cb0fd279832bbdd69fed5354d4e5ad26f88","version":"2.0"},"bufferViews":[{"buffer":0,"byteLength":48,"byteStride":12,"target":34962},{"buffer":0,"byteLength":64,"byteOffset":48,"byteStride":16,"target":34962},{"buffer":0,"byteLength":48,"byteOffset":112,"byteStride":12,"target":34962},{"buffer":0,"byteLength":32,"byteOffset":160,"byteStride":8,"target":34962},{"buffer":0,"byteLength":6,"byteOffset":192,"target":34963},{"buffer":0,"byteLength":288,"byteOffset":200,"byteStride":12,"target":34962},{"buffer":0,"byteLength":384,"byteOffset":488,"byteStride":16,"target":34962},{"buffer":0,"byteLength":288,"byteOffset":872,"byteStride":12,"target":34962},{"buffer":0,"byteLength":192,"byteOffset":1160,"byteStride":8,"target":34962},{"buffer":0,"byteLength":36,"byteOffset":1352,"target":34963},{"buffer":0,"byteLength":288,"byteOffset":1388,"byteStride":12,"target":34962},{"buffer":0,"byteLength":288,"byteOffset":1676,"byteStride":12,"target":34962},{"buffer":0,"byteLength":48,"byteOffset":1964,"byteStride":12,"target":34962},{"buffer":0,"byteLength":288,"byteOffset":2012,"byteStride":12,"target":34962},{"buffer":0,"byteLength":288,"byteOffset":2300,"byteStride":12,"target":34962},{"buffer":0,"byteLength":288,"byteOffset":2588,"byteStride":12,"target":34962},{"buffer":0,"byteLength":288,"byteOffset":2876,"byteStride":12,"target":34962},{"buffer":0,"byteLength":288,"byteOffset":3164,"byteStride":12,"target":34962},{"buffer":0,"byteLength":288,"byteOffset":3452,"byteStride":12,"target":34962},{"buffer":0,"byteLength":288,"byteOffset":3740,"byteStride":12,"target":34962}],"buffers":[{"byteLength":4028,"uri":"cooker_movement_test_for_export0.bin"}],"extensions":{"OMI_physics_shape":{"shapes":[{"box":{"size":[0.75,0.10000000149011612,0.5]},"type":"box"},{"box":{"size":[0.5,0.10000000149011612,0.5]},"type":"box"},{"box":{"size":[0.5799999833106995,0.4449999928474426,0.019999999552965164]},"type":"box"},{"box":{"size":[0.699999988079071,0.699999988079071,0.20000000298023224]},"type":"box"},{"box":{"size":[0.6499999761581421,0.02500000037252903,0.30000001192092896]},"type":"box"},{"box":{"size":[0.07500000298023224,0.1899999976158142,0.07500000298023224]},"type":"box"},{"box":{"size":[0.30000001192092896,0.03999999910593033,0.20000000298023224]},"type":"box"}]}},"extensionsUsed":["GODOT_single_root","OMI_physics_body","OMI_physics_shape"],"images":[{"name":"cooker_movement_test_for_export","uri":"textures%2Fcooker_movement_test_for_export.png"},{"name":"cooker_movement_test_for_export2","uri":"textures%2Fcooker_movement_test_for_export2.png"}],"materials":[{"pbrMetallicRoughness":{"baseColorFactor":[1.0,1.0,1.0,1.0],"baseColorTexture":{"index":0},"metallicFactor":0.0,"roughnessFactor":1.0}},{"pbrMetallicRoughness":{"baseColorFactor":[1.0,1.0,1.0,1.0],"metallicFactor":0.0,"roughnessFactor":1.0}},{"pbrMetallicRoughness":{"baseColorFactor":[0.06596055626869202,0.06596055626869202,0.06596055626869202,1.0],"metallicFactor":0.0,"roughnessFactor":1.0}},{"alphaMode":"BLEND","pbrMetallicRoughness":{"baseColorFactor":[1.0,1.0,1.0,0.4117647111415863],"baseColorTexture":{"index":1},"metallicFactor":0.0,"roughnessFactor":1.0}},{"pbrMetallicRoughness":{"baseColorFactor":[0.03273209184408188,0.46236130595207214,0.46236130595207214,1.0],"metallicFactor":0.0,"roughnessFactor":1.0}},{"pbrMetallicRoughness":{"baseColorFactor":[0.8087751269340515,0.18144161999225616,0.31490135192871094,1.0],"metallicFactor":0.0,"roughnessFactor":1.0}},{"pbrMetallicRoughness":{"baseColorFactor":[0.2738383710384369,0.007716659922152758,0.05111659690737724,1.0],"metallicFactor":0.0,"roughnessFactor":1.0}}],"meshes":[{"primitives":[{"attributes":{"NORMAL":2,"POSITION":0,"TANGENT":1,"TEXCOORD_0":3},"indices":4,"material":0,"mode":4}]},{"primitives":[{"attributes":{"NORMAL":7,"POSITION":5,"TANGENT":6,"TEXCOORD_0":8},"indices":9,"material":1,"mode":4}]},{"primitives":[{"attributes":{"NORMAL":7,"POSITION":10,"TANGENT":6,"TEXCOORD_0":8},"indices":9,"mode":4}]},{"primitives":[{"attributes":{"NORMAL":7,"POSITION":10,"TANGENT":6,"TEXCOORD_0":8},"indices":9,"mode":4}]},{"primitives":[{"attributes":{"NORMAL":7,"POSITION":10,"TANGENT":6,"TEXCOORD_0":8},"indices":9,"mode":4}]},{"primitives":[{"attributes":{"NORMAL":7,"POSITION":10,"TANGENT":6,"TEXCOORD_0":8},"indices":9,"mode":4}]},{"primitives":[{"attributes":{"NORMAL":7,"POSITION":11,"TANGENT":6,"TEXCOORD_0":8},"indices":9,"material":2,"mode":4}]},{"primitives":[{"attributes":{"NORMAL":2,"POSITION":12,"TANGENT":1,"TEXCOORD_0":3},"indices":4,"material":3,"mode":4}]},{"primitives":[{"attributes":{"NORMAL":7,"POSITION":13,"TANGENT":6,"TEXCOORD_0":8},"indices":9,"material":2,"mode":4}]},{"primitives":[{"attributes":{"NORMAL":7,"POSITION":13,"TANGENT":6,"TEXCOORD_0":8},"indices":9,"material":2,"mode":4}]},{"primitives":[{"attributes":{"NORMAL":7,"POSITION":13,"TANGENT":6,"TEXCOORD_0":8},"indices":9,"material":2,"mode":4}]},{"primitives":[{"attributes":{"NORMAL":7,"POSITION":13,"TANGENT":6,"TEXCOORD_0":8},"indices":9,"material":2,"mode":4}]},{"primitives":[{"attributes":{"NORMAL":7,"POSITION":14,"TANGENT":6,"TEXCOORD_0":8},"indices":9,"material":2,"mode":4}]},{"primitives":[{"attributes":{"NORMAL":7,"POSITION":15,"TANGENT":6,"TEXCOORD_0":8},"indices":9,"mode":4}]},{"primitives":[{"attributes":{"NORMAL":7,"POSITION":16,"TANGENT":6,"TEXCOORD_0":8},"indices":9,"mode":4}]},{"primitives":[{"attributes":{"NORMAL":7,"POSITION":17,"TANGENT":6,"TEXCOORD_0":8},"indices":9,"mode":4}]},{"primitives":[{"attributes":{"NORMAL":7,"POSITION":17,"TANGENT":6,"TEXCOORD_0":8},"indices":9,"mode":4}]},{"primitives":[{"attributes":{"NORMAL":7,"POSITION":17,"TANGENT":6,"TEXCOORD_0":8},"indices":9,"mode":4}]},{"primitives":[{"attributes":{"NORMAL":7,"POSITION":18,"TANGENT":6,"TEXCOORD_0":8},"indices":9,"material":4,"mode":4}]},{"primitives":[{"attributes":{"NORMAL":7,"POSITION":18,"TANGENT":6,"TEXCOORD_0":8},"indices":9,"material":4,"mode":4}]},{"primitives":[{"attributes":{"NORMAL":7,"POSITION":19,"TANGENT":6,"TEXCOORD_0":8},"indices":9,"material":5,"mode":4}]},{"primitives":[{"attributes":{"NORMAL":7,"POSITION":16,"TANGENT":6,"TEXCOORD_0":8},"indices":9,"mode":4}]},{"primitives":[{"attributes":{"NORMAL":7,"POSITION":17,"TANGENT":6,"TEXCOORD_0":8},"indices":9,"mode":4}]},{"primitives":[{"attributes":{"NORMAL":7,"POSITION":17,"TANGENT":6,"TEXCOORD_0":8},"indices":9,"mode":4}]},{"primitives":[{"attributes":{"NORMAL":7,"POSITION":17,"TANGENT":6,"TEXCOORD_0":8},"indices":9,"mode":4}]},{"primitives":[{"attributes":{"NORMAL":7,"POSITION":18,"TANGENT":6,"TEXCOORD_0":8},"indices":9,"material":4,"mode":4}]},{"primitives":[{"attributes":{"NORMAL":7,"POSITION":18,"TANGENT":6,"TEXCOORD_0":8},"indices":9,"material":4,"mode":4}]},{"primitives":[{"attributes":{"NORMAL":7,"POSITION":19,"TANGENT":6,"TEXCOORD_0":8},"indices":9,"material":5,"mode":4}]},{"primitives":[{"attributes":{"NORMAL":7,"POSITION":19,"TANGENT":6,"TEXCOORD_0":8},"indices":9,"material":5,"mode":4}]},{"primitives":[{"attributes":{"NORMAL":7,"POSITION":19,"TANGENT":6,"TEXCOORD_0":8},"indices":9,"material":6,"mode":4}]}],"nodes":[{"children":[1],"name":"CookerMovementTest"},{"children":[2,31,49],"name":"Node3D"},{"children":[3,13],"name":"Cookers","translation":[0.0,0.05439610779285431,-0.3326111137866974]},{"children":[4,5,8,9,10,11,12],"extensions":{"OMI_physics_body":{"motion":{"type":"static"}}},"name":"Cooker","rotation":[0.3888746500015259,0.0,0.0,0.9212906956672668],"translation":[-0.4000000059604645,0.0,0.0]},{"name":"IngredientHolder","translation":[0.0,0.10000000149011612,0.0]},{"children":[6,7],"extensions":{"OMI_physics_body":{"collider":{"shape":0}}},"name":"CollisionShape3D","translation":[0.0,0.05000000074505806,0.0]},{"mesh":0,"name":"GridPlane","translation":[0.0,0.05000000074505806,0.0]},{"mesh":1,"name":"CookerBody2","translation":[0.0,-0.006640631705522537,0.0]},{"name":"Node"},{"mesh":2,"name":"MeshInstance3D","translation":[-0.31028783321380615,0.11960697174072266,-0.06353098899126053]},{"mesh":3,"name":"MeshInstance3D3","translation":[-0.1876363456249237,0.11960697174072266,-0.06353098899126053]},{"mesh":4,"name":"MeshInstance3D4","translation":[-0.1876363456249237,0.11960697174072266,-0.1852952092885971]},{"mesh":5,"name":"MeshInstance3D2","translation":[-0.31028783321380615,0.11960697174072266,-0.18540433049201965]},{"children":[14,15,16,17,18,20,22,24,26,28],"extensions":{"OMI_physics_body":{"motion":{"type":"static"}}},"name":"Oven","rotation":[0.0,-0.13052619993686676,0.0,0.9914448857307434],"translation":[0.44892677664756775,-0.19174815714359283,-0.13255701959133148]},{"name":"Oven_CookingModifier"},{"mesh":6,"name":"CookerBody22","rotation":[0.5,0.5,0.5,0.5],"translation":[0.005053889472037554,0.3007797598838806,-0.008706986904144287]},{"mesh":7,"name":"GridPlane2","rotation":[0.7071067690849304,0.0,0.0,0.7071067690849304],"translation":[0.0,0.29523277282714844,0.13670191168785095]},{"name":"IngredientHolder2","rotation":[0.7071067690849304,0.0,0.0,0.7071067690849304],"translation":[0.0,0.1230558454990387,0.06881784647703171]},{"children":[19],"extensions":{"OMI_physics_body":{"collider":{"shape":1}}},"name":"Bottom","translation":[0.0,0.07360066473484039,7.450580596923828e-09]},{"mesh":8,"name":"CookerBody23"},{"children":[21],"extensions":{"OMI_physics_body":{"collider":{"shape":1}}},"name":"Top","translation":[0.0,0.5121868848800659,0.0]},{"mesh":9,"name":"CookerBody24"},{"children":[23],"extensions":{"OMI_physics_body":{"collider":{"shape":1}}},"name":"LSide","rotation":[0.0,0.0,0.7071067690849304,0.7071067690849304],"translation":[-0.3011332154273987,0.2908371090888977,0.0]},{"mesh":10,"name":"CookerBody25"},{"children":[25],"extensions":{"OMI_physics_body":{"collider":{"shape":1}}},"name":"RSide","rotation":[0.0,0.0,0.7071067690849304,0.7071067690849304],"translation":[0.29944121837615967,0.2908371388912201,0.0]},{"mesh":11,"name":"CookerBody26"},{"children":[27],"extensions":{"OMI_physics_body":{"collider":{"shape":1}}},"name":"Back","rotation":[0.5,0.5,0.5,0.5],"translation":[0.005053877830505371,0.2908371686935425,-0.28939226269721985]},{"mesh":12,"name":"CookerBody27"},{"children":[29],"extensions":{"OMI_physics_body":{"motion":{"type":"static"}}},"name":"OvenDoor","translation":[0.27773791551589966,0.28705456852912903,0.264710009098053]},{"children":[30],"extensions":{"OMI_physics_body":{"collider":{"shape":2}}},"name":"CollisionShape3D2","translation":[-0.28025737404823303,0.0,0.0]},{"mesh":13,"name":"MeshInstance3D5"},{"children":[32,34,36,38,40,43,46],"extensions":{"OMI_physics_body":{"motion":{"type":"static"}}},"name":"Shelf","rotation":[-0.06658847630023956,0.0,0.0,0.9977805614471436],"translation":[0.39150357246398926,-0.6341092586517334,-0.3945876359939575]},{"children":[33],"extensions":{"OMI_physics_body":{"collider":{"shape":3}}},"name":"ShelfBack","translation":[0.0,0.17871272563934326,0.0]},{"mesh":14,"name":"BackgroundBlock"},{"children":[35],"extensions":{"OMI_physics_body":{"collider":{"shape":4}}},"name":"ShelfBlock2","translation":[0.0,0.21300114691257477,0.25448888540267944]},{"mesh":15,"name":"Block","translation":[0.0,-0.0018642693758010864,0.0]},{"children":[37],"extensions":{"OMI_physics_body":{"collider":{"shape":4}}},"name":"ShelfBlock4","translation":[0.0,0.48593324422836304,0.25448888540267944]},{"mesh":16,"name":"Block2"},{"children":[39],"extensions":{"OMI_physics_body":{"collider":{"shape":4}}},"name":"ShelfBlock3","translation":[0.0,-0.08652476966381073,0.25448888540267944]},{"mesh":17,"name":"Block3","translation":[0.0,-0.0018642693758010864,0.0]},{"children":[41,42],"extensions":{"OMI_physics_body":{"motion":{"type":"static"}}},"name":"IngredientPackage","translation":[0.16437262296676636,0.22214427590370178,0.1505543291568756]},{"mesh":18,"name":"TempMesh","translation":[0.0,0.09144534170627594,0.0]},{"extensions":{"OMI_physics_body":{"collider":{"shape":5}}},"name":"Collision","translation":[0.0,0.09144534170627594,0.0]},{"children":[44,45],"extensions":{"OMI_physics_body":{"motion":{"type":"static"}}},"name":"IngredientPackage2","translation":[0.16526877880096436,-0.08322565257549286,0.2609420418739319]},{"mesh":19,"name":"TempMesh2","translation":[0.0,0.09144534170627594,0.0]},{"extensions":{"OMI_physics_body":{"collider":{"shape":5}}},"name":"Collision2","translation":[0.0,0.09144534170627594,0.0]},{"children":[47,48],"extensions":{"OMI_physics_body":{"motion":{"type":"static"}}},"name":"IngredientPackage3","translation":[0.09697270393371582,0.07374940812587738,0.2609420418739319]},{"mesh":20,"name":"TempMesh3","translation":[-0.25077322125434875,-0.12426332384347916,0.0]},{"extensions":{"OMI_physics_body":{"collider":{"shape":6}}},"name":"Collision3","translation":[-0.25077322125434875,-0.12426332384347916,0.0]},{"children":[50,52,54,56,58,61,64,67,70],"extensions":{"OMI_physics_body":{"motion":{"type":"static"}}},"name":"Shelf2","rotation":[-0.06658847630023956,0.0,0.0,0.9977805614471436],"translation":[-0.4087541103363037,-0.6341092586517334,-0.3945876359939575]},{"children":[51],"extensions":{"OMI_physics_body":{"collider":{"shape":3}}},"name":"ShelfBack2","translation":[0.0,0.17871272563934326,0.0]},{"mesh":21,"name":"BackgroundBlock2"},{"children":[53],"extensions":{"OMI_physics_body":{"collider":{"shape":4}}},"name":"ShelfBlock22","translation":[0.0,0.21300114691257477,0.25448888540267944]},{"mesh":22,"name":"Block4","translation":[0.0,-0.0018642693758010864,0.0]},{"children":[55],"extensions":{"OMI_physics_body":{"collider":{"shape":4}}},"name":"ShelfBlock42","translation":[0.0,0.48593324422836304,0.25448888540267944]},{"mesh":23,"name":"Block5"},{"children":[57],"extensions":{"OMI_physics_body":{"collider":{"shape":4}}},"name":"ShelfBlock32","translation":[0.0,-0.08652476966381073,0.25448888540267944]},{"mesh":24,"name":"Block6","translation":[0.0,-0.0018642693758010864,0.0]},{"children":[59,60],"extensions":{"OMI_physics_body":{"motion":{"type":"static"}}},"name":"IngredientPackage4","translation":[0.16437262296676636,0.22214427590370178,0.1505543291568756]},{"mesh":25,"name":"TempMesh4","translation":[0.0,0.09144534170627594,0.0]},{"extensions":{"OMI_physics_body":{"collider":{"shape":5}}},"name":"Collision4","translation":[0.0,0.09144534170627594,0.0]},{"children":[62,63],"extensions":{"OMI_physics_body":{"motion":{"type":"static"}}},"name":"IngredientPackage22","translation":[0.16526877880096436,-0.08322565257549286,0.2609420418739319]},{"mesh":26,"name":"TempMesh5","translation":[0.0,0.09144534170627594,0.0]},{"extensions":{"OMI_physics_body":{"collider":{"shape":5}}},"name":"Collision5","translation":[0.0,0.09144534170627594,0.0]},{"children":[65,66],"extensions":{"OMI_physics_body":{"motion":{"type":"static"}}},"name":"IngredientPackage32","translation":[-0.16801363229751587,-0.06773178279399872,0.2609420418739319]},{"mesh":27,"name":"TempMesh6","translation":[0.0,0.01721787452697754,-2.9802322387695313e-08]},{"extensions":{"OMI_physics_body":{"collider":{"shape":6}}},"name":"Collision6","translation":[0.0,0.01721787452697754,-2.9802322387695313e-08]},{"children":[68,69],"extensions":{"OMI_physics_body":{"motion":{"type":"static"}}},"name":"IngredientPackage5","translation":[-0.16801363229751587,0.02815246395766735,0.2609420418739319]},{"mesh":28,"name":"TempMesh7","translation":[0.0,0.01721787452697754,-2.9802322387695313e-08]},{"extensions":{"OMI_physics_body":{"collider":{"shape":6}}},"name":"Collision7","translation":[0.0,0.01721787452697754,-2.9802322387695313e-08]},{"children":[71,72],"extensions":{"OMI_physics_body":{"motion":{"type":"static"}}},"name":"IngredientPackage42","translation":[-0.16801363229751587,-0.024678371846675873,0.2609420418739319]},{"mesh":29,"name":"TempMesh8","translation":[0.0,0.01721787452697754,-2.9802322387695313e-08]},{"extensions":{"OMI_physics_body":{"collider":{"shape":6}}},"name":"Collision8","translation":[0.0,0.01721787452697754,-2.9802322387695313e-08]}],"samplers":[{"magFilter":9729,"minFilter":9987,"wrapS":10497,"wrapT":10497}],"scene":0,"scenes":[{"nodes":[0]}],"textures":[{"sampler":0,"source":0},{"sampler":0,"source":1}]}